<svg xmlns="http://www.w3.org/2000/svg" width="500" height="112" viewBox="0 0 500 112" role="img" aria-labelledby="logo-title logo-desc">
  <title id="logo-title">MyAgri</title>
  <desc id="logo-desc">Logo MyAgri — L'agriculture wallonne expliquée</desc>
  <defs>
    <linearGradient id="mark-bg" x1="8" y1="8" x2="104" y2="104" gradientUnits="userSpaceOnUse">
      <stop offset="0" stop-color="#145733"/>
      <stop offset="0.58" stop-color="#1f7a45"/>
      <stop offset="1" stop-color="#315d88"/>
    </linearGradient>
    <linearGradient id="field-line" x1="18" y1="72" x2="94" y2="92" gradientUnits="userSpaceOnUse">
      <stop offset="0" stop-color="#fbefd8"/>
      <stop offset="1" stop-color="#d7f3df"/>
    </linearGradient>
    <filter id="mark-shadow" x="0" y="0" width="120" height="120" color-interpolation-filters="sRGB">
      <feDropShadow dx="0" dy="4" stdDeviation="4" flood-color="#10261a" flood-opacity="0.18"/>
    </filter>
  </defs>

  <g filter="url(#mark-shadow)">
    <rect x="8" y="8" width="96" height="96" rx="25" fill="url(#mark-bg)"/>
    <circle cx="82" cy="28" r="10" fill="#fbefd8"/>
    <path d="M22 78C38 68 54 68 70 74C80 78 89 79 98 75" fill="none" stroke="url(#field-line)" stroke-width="6" stroke-linecap="round"/>
    <path d="M18 91C36 80 55 80 73 87C82 90 91 92 100 89" fill="none" stroke="#d7f3df" stroke-width="5" stroke-linecap="round" opacity="0.9"/>
    <path d="M56 68V33" fill="none" stroke="#f6f7f2" stroke-width="6" stroke-linecap="round"/>
    <path d="M56 42C45 29 33 28 25 35C35 49 46 52 56 42Z" fill="#f6f7f2"/>
    <path d="M56 43C67 29 81 29 89 36C77 50 67 53 56 43Z" fill="#d7f3df"/>
    <path d="M30 62L43 50L56 66L69 50L84 62" fill="none" stroke="#0f2d1d" stroke-width="6" stroke-linecap="round" stroke-linejoin="round" opacity="0.92"/>
  </g>

  <g font-family="Inter, Segoe UI, Arial, sans-serif">
    <text x="124" y="51" font-size="43" font-weight="850" letter-spacing="0">
      <tspan fill="#13281d">My</tspan><tspan fill="#1f7a45">Agri</tspan>
    </text>
    <text x="126" y="82" font-size="22" font-weight="760" letter-spacing="0" fill="#315d88">L'agriculture wallonne expliquée</text>
  </g>
</svg>
