<svg xmlns="http://www.w3.org/2000/svg" width="420" height="96" viewBox="0 0 420 96" role="img" aria-labelledby="logo-title logo-desc">
  <title id="logo-title">MyAgri</title>
  <desc id="logo-desc">Logo MyAgri, portail citoyen sur l'agriculture wallonne</desc>
  <defs>
    <linearGradient id="mark-bg" x1="8" y1="8" x2="88" y2="88" gradientUnits="userSpaceOnUse">
      <stop offset="0" stop-color="#145733"/>
      <stop offset="0.58" stop-color="#1f7a45"/>
      <stop offset="1" stop-color="#315d88"/>
    </linearGradient>
    <linearGradient id="field-line" x1="15" y1="68" x2="82" y2="82" gradientUnits="userSpaceOnUse">
      <stop offset="0" stop-color="#fbefd8"/>
      <stop offset="1" stop-color="#d7f3df"/>
    </linearGradient>
  </defs>

  <g>
    <rect x="6" y="6" width="84" height="84" rx="22" fill="url(#mark-bg)"/>
    <circle cx="72" cy="24" r="8" fill="#fbefd8"/>
    <path d="M22 72C35 64 49 64 62 69C70 72 77 73 84 70" fill="none" stroke="url(#field-line)" stroke-width="5" stroke-linecap="round"/>
    <path d="M17 81C33 72 49 72 65 78C72 80 79 81 85 79" fill="none" stroke="#d7f3df" stroke-width="4" stroke-linecap="round" opacity="0.78"/>
    <path d="M48 62V31" fill="none" stroke="#f6f7f2" stroke-width="5" stroke-linecap="round"/>
    <path d="M48 38C39 28 29 27 22 33C30 44 39 47 48 38Z" fill="#f6f7f2"/>
    <path d="M48 39C57 28 69 27 76 34C66 45 57 47 48 39Z" fill="#d7f3df"/>
    <path d="M28 55L39 45L48 58L58 45L70 55" fill="none" stroke="#0f2d1d" stroke-width="5" stroke-linecap="round" stroke-linejoin="round" opacity="0.88"/>
  </g>

  <g fill="#13281d">
    <text x="108" y="47" font-family="Inter, Segoe UI, Arial, sans-serif" font-size="36" font-weight="800">MyAgri</text>
    <text x="108" y="75" font-family="Inter, Segoe UI, Arial, sans-serif" font-size="20" font-weight="750" fill="#315d88">L'agriculture wallonne expliquée</text>
  </g>
</svg>
