<svg xmlns="http://www.w3.org/2000/svg" width="1200" height="630" viewBox="0 0 1200 630" role="img" aria-label="MyAgri">
  <defs>
    <linearGradient id="bg" x1="0" y1="0" x2="1" y2="1">
      <stop offset="0" stop-color="#f6f7f2"/>
      <stop offset="0.55" stop-color="#e7f0f8"/>
      <stop offset="1" stop-color="#def2e6"/>
    </linearGradient>
    <linearGradient id="mark" x1="90" y1="90" x2="300" y2="300" gradientUnits="userSpaceOnUse">
      <stop offset="0" stop-color="#145733"/>
      <stop offset="0.62" stop-color="#1f7a45"/>
      <stop offset="1" stop-color="#315d88"/>
    </linearGradient>
  </defs>
  <rect width="1200" height="630" fill="url(#bg)"/>
  <rect x="74" y="88" width="210" height="210" rx="54" fill="url(#mark)"/>
  <circle cx="240" cy="132" r="21" fill="#fbefd8"/>
  <path d="M116 250C151 229 187 229 221 242C242 250 261 254 278 248" fill="none" stroke="#fbefd8" stroke-width="12" stroke-linecap="round"/>
  <path d="M102 276C143 252 187 253 227 268C247 275 265 278 282 273" fill="none" stroke="#d7f3df" stroke-width="10" stroke-linecap="round" opacity="0.85"/>
  <path d="M178 226V144" fill="none" stroke="#f6f7f2" stroke-width="13" stroke-linecap="round"/>
  <path d="M178 162C153 135 127 132 108 149C129 178 153 185 178 162Z" fill="#f6f7f2"/>
  <path d="M178 164C202 135 235 134 253 151C228 180 202 186 178 164Z" fill="#d7f3df"/>
  <path d="M128 211L155 185L178 219L204 185L236 211" fill="none" stroke="#0f2d1d" stroke-width="13" stroke-linecap="round" stroke-linejoin="round" opacity="0.88"/>
  <g font-family="Inter, Segoe UI, Arial, sans-serif">
    <text x="330" y="190" fill="#13281d" font-size="88" font-weight="850">MyAgri</text>
    <path d="M338 240H768" stroke="#315d88" stroke-width="9" stroke-linecap="round"/>
    <path d="M80 420C178 368 280 366 386 405C454 430 514 438 584 416" fill="none" stroke="#1f7a45" stroke-width="16" stroke-linecap="round" opacity="0.78"/>
    <path d="M84 482C190 430 310 431 426 470C500 495 566 502 638 479" fill="none" stroke="#315d88" stroke-width="13" stroke-linecap="round" opacity="0.62"/>
  </g>
</svg>
